<?xml version="1.0" encoding="utf-8"?>
<!-- Generator: Adobe Illustrator 14.0.0, SVG Export Plug-In . SVG Version: 6.00 Build 43363)  -->
<!DOCTYPE svg PUBLIC "-//W3C//DTD SVG 1.1//EN" "http://www.w3.org/Graphics/SVG/1.1/DTD/svg11.dtd">
<svg version="1.1" id="Camada_1" focusable="false" xmlns="http://www.w3.org/2000/svg" xmlns:xlink="http://www.w3.org/1999/xlink"
	 x="0px" y="0px" width="30px" height="30px" viewBox="145.5 0 209 200" enable-background="new 145.5 0 209 200"
	 xml:space="preserve">
<path fill="#FFFFFF" d="M179.875,100.139c0,38.589,31.284,69.875,69.875,69.875s69.875-31.285,69.875-69.875
	c0-38.591-31.285-69.875-69.875-69.875C211.159,30.264,179.875,61.548,179.875,100.139z M249.75,151.98V48.296
	c28.656,0,51.843,23.192,51.843,51.843C301.593,128.795,278.4,151.98,249.75,151.98z"/>
<rect x="244.75" y="3" fill="#FFFFFF" width="10" height="17.5"/>
<rect x="311.546" y="27.032" transform="matrix(-0.7072 -0.707 0.707 -0.7072 515.1012 284.8961)" fill="#FFFFFF" width="10.001" height="17.501"/>
<rect x="329.75" y="95.139" fill="#FFFFFF" width="17.5" height="10"/>
<rect x="152.611" y="95.5" fill="#FFFFFF" width="17.5" height="10"/>
<rect x="180.387" y="24.945" transform="matrix(-0.7071 0.7071 -0.7071 -0.7071 340.3014 -73.5683)" fill="#FFFFFF" width="10" height="17.5"/>
<rect x="245.181" y="180.139" fill="#FFFFFF" width="10" height="17.5"/>
<rect x="178.372" y="156.096" transform="matrix(0.7072 0.7071 -0.7071 0.7072 170.2559 -81.3808)" fill="#FFFFFF" width="10.001" height="17.501"/>
<rect x="309.545" y="158.194" transform="matrix(0.7071 -0.7072 0.7072 0.7071 -25.9122 271.3372)" fill="#FFFFFF" width="10" height="17.5"/>
</svg>