<?xml version="1.0" ?><!DOCTYPE svg  PUBLIC '-//W3C//DTD SVG 1.1//EN'  'http://www.w3.org/Graphics/SVG/1.1/DTD/svg11.dtd'><svg enable-background="new 0 0 512 512" id="Layer_1" version="1.1" viewBox="0 0 512 512" xml:space="preserve" xmlns="http://www.w3.org/2000/svg" xmlns:xlink="http://www.w3.org/1999/xlink"><g><path d="M268.6,245.8c0-31.8,0-63.6,0-95.5c0-7.6,0.5-8.2,7.6-11c59.9-23.4,130.3,13.7,144.9,76.3   c1,4.4,1.8,8.8,2.5,13.2c0.4,2.7,1,3.7,4.1,2.6c35.4-12.7,73.4,9.4,81.7,45.7c7.8,33.8-17.5,70.8-51.9,74.7   c-4.3,0.5-8.6,0.7-13,0.7c-54.8,0-109.6,0-164.4-0.1c-9.6,0-11.4-1.8-11.4-11.4C268.6,309.5,268.6,277.6,268.6,245.8z" fill="#F67B10"/><path d="M247.4,227.7c0.5-24,1-47.9,1.5-71.9c0.1-5.4,2.6-8.6,6.8-8.6c4.2,0,6.9,3,7,8.5c0.8,35,1.3,69.9,2.4,104.9   c0.8,27.3-0.2,54.6-2.2,81.8c-0.1,1.3-0.1,2.7-0.4,4c-0.8,4-3.3,6.2-7.4,5.8c-3.9-0.4-5.9-2.9-6.1-6.7c-1.1-24.3-3.5-48.5-2.6-72.8   c0.5-15,0.1-30,0.1-44.9C246.7,227.7,247.1,227.7,247.4,227.7z" fill="#F67D13"/><path d="M242.3,240c1.9,35.1,1.1,70.2-1.3,105.3c-0.3,4.3-2.2,7-6.6,7.2c-3.7,0.2-6.1-2.8-6.5-7.4   c-3.8-51.6-1.2-103.1-0.3-154.7c0.1-7.5,0.2-15,0.3-22.5c0.1-5.5,2.6-8.9,6.6-8.8c3.9,0.1,6.4,3.4,6.4,9c0,24,0,47.9,0,71.9   C241.4,240,241.9,240,242.3,240z" fill="#F67D13"/><path d="M222.1,244c0,15.8,0.4,31.7-0.1,47.5c-0.6,18.3-1.9,36.6-2.9,54.9c-0.2,3.7-2.2,6-6,6   c-4-0.1-5.9-2.6-6.1-6.5c-0.7-12.3-1.5-24.6-1.9-36.9c-1.3-40.7,1.6-81.2,2-121.9c0-4.2,2.9-7.3,6.3-6.8c3.9,0.5,5.7,2.9,5.8,6.9   c0.5,19,1.1,38,1.6,56.9C221.2,244.1,221.6,244,222.1,244z" fill="#F67D13"/><path d="M186.1,240.2c0-18.5,0-37,0-55.4c0-1.5,0.1-3,0.6-4.4c0.8-2.5,2.7-3.7,5.4-3.6c2.7,0.1,4.4,1.5,5,4   c0.4,1.4,0.4,3,0.4,4.5c1.1,35.8,2.7,71.6,3,107.4c0.2,17.6-1.9,35.2-3,52.8c-0.2,3.6-1.2,6.8-5.6,6.8c-4.6,0-5.5-3.3-5.8-7.2   c-2.5-34.1-3.1-68.2-1.3-102.3c0-0.8,0-1.7,0-2.5C185.2,240.2,185.6,240.2,186.1,240.2z" fill="#F67D13"/><path d="M177,243.8c1.4,24,3.4,47.9,1.2,71.9c-0.9,9.8-1.4,19.6-2,29.4c-0.2,3.5-0.7,7-5.2,7.1   c-4.6,0.1-5.1-3.3-5.4-6.9c-3-34.9-3.1-69.9-1.6-104.8c0.8-19.5,1.1-39,1.7-58.5c0.1-1.8-0.1-3.7,0.9-5.4c1.2-2.1,3.2-3,5.5-2.4   c3.1,0.8,4,3.2,4.1,6.1c0.3,10.3,0.8,20.7,0.9,31C177.1,222.2,177,233,177,243.8z" fill="#F67D13"/><path d="M142.9,257.5c0.8-27.9,1.5-50,2.2-72.1c0-0.3,0-0.7,0-1c-0.1-3.3,1.2-5.9,4.5-6.1c3.8-0.2,5,2.7,5.1,6   c0.3,7.5,0.6,15,0.7,22.5c0.7,31.1,3.2,62.2,2.5,93.3c-0.3,15.3-2,30.5-3.2,45.8c-0.2,3-0.7,6.3-4.9,6.3c-4.4,0-4.7-3.3-4.9-6.7   C142.8,314.3,140.3,283.1,142.9,257.5z" fill="#F67D13"/><path d="M122.9,245.6c0.5-16.6,1.1-33.3,1.7-49.9c0-1.3,0.2-2.7,0.3-4c0.3-2.6,1.6-4.5,4.4-4.4   c2.5,0.1,3.8,1.8,3.9,4.3c0.5,9.8,1,19.6,1.4,29.4c1,24.1,2.5,48.2,2.8,72.4c0.1,13.4-1.9,26.9-2.9,40.3c-0.3,3.7-0.3,7.3-0.8,10.9   c-0.4,3.1,0.4,7.5-4.5,7.5c-4.9,0.1-4.4-4.3-4.7-7.4c-0.9-11-1.3-21.9-2.3-32.9C120.1,289.8,122.5,267.7,122.9,245.6z" fill="#F67D13"/><path d="M116.8,295c-1,11.7-2.1,25.8-3.3,39.9c-0.4,4.5-0.8,8.9-1.3,13.4c-0.2,2.3-1.3,3.8-3.7,3.9   c-2.5,0.1-3.6-1.6-3.9-3.7c-0.5-5.1-0.7-10.3-1.3-15.4c-4-33.9-1.3-67.9,0.3-101.8c0.3-6.3,0.5-12.6,0.9-19c0.1-2.6,0.6-5.3,4-5.3   c3.5,0,3.7,2.7,3.9,5.3c0.8,14,1.7,27.9,2.4,41.9C115.5,267,116.1,279.8,116.8,295z" fill="#F67D13"/><path d="M96.3,294.8c-1.3,14.3-2.6,28.8-3.9,43.4c-0.2,2.6-0.3,5.3-0.6,8c-0.3,2.4-0.2,5.5-3.6,5.6   c-3.5,0.1-3.6-2.9-3.8-5.4c-0.8-9.3-1-18.6-2.3-27.8c-3.4-24.7,0.7-49.1,2.3-73.6c0.2-2.4,0.3-5.4,3.8-5.4c2.8,0,3.3,2.5,3.5,4.7   C93.3,261,94.7,277.8,96.3,294.8z" fill="#F67D13"/><path d="M75.9,294.4c-1.7,17.7-3.3,35.5-5,53.2c-0.2,1.9-1.1,3.3-3.1,3.3c-2.4,0-2.8-1.8-3-3.8   c-1.2-13.9-2.2-27.9-3.6-41.8c-1.7-17.2,1.6-34.2,2.4-51.3c0.2-4.8,0.9-9.6,1.2-14.4c0.1-1.9,0.7-3.4,2.7-3.5   c2.2-0.1,3.2,1.5,3.3,3.6C72.6,257.9,74.2,276.1,75.9,294.4z" fill="#F67D13"/><path d="M55.4,292.5c0.4,9.2-2.2,21.1-3,33c-0.4,6.3-1.2,12.6-1.9,18.9c-0.2,1.9-0.1,4.5-2.9,4.4   c-2.7-0.1-2.4-2.6-2.6-4.6c-1.5-16.1-3.4-32.1-4.3-48.2c-0.4-8.1,0.9-16.2,1.6-24.4c0.8-9.4,1.8-18.9,2.7-28.3   c0.2-2.1-0.5-5,2.5-5.1c3.4-0.1,2.9,3.2,3.1,5.3C52.2,258.9,53.6,274.3,55.4,292.5z" fill="#F67D13"/><path d="M20.7,294.2c1.6-14.5,3.2-29.2,4.8-43.9c0.2-1.4,0.2-3.3,2.3-3.3c2.1,0,2.1,1.8,2.3,3.2   c1.7,13.7,4,27.4,4.9,41.1c0.9,13.8-2.9,27.4-4.2,41.1c-0.2,1.7-0.4,3.3-0.7,4.9c-0.2,1.5-0.2,3.3-2.2,3.4c-2,0.1-2.2-1.7-2.4-3.2   c-0.7-6.1-1.4-12.2-2.1-18.3C22.5,311,21.6,302.7,20.7,294.2z" fill="#F67D13"/><path d="M15.4,294.4c-1.4,9-2.9,18.2-4.4,27.4c-0.2,1.3-0.8,2.3-2.3,2.1c-1.5-0.2-1.7-1.4-1.9-2.6   c-1.9-14.3-5-28.5-1.6-43c0.8-3.5,1-7.2,1.5-10.9c0.2-1.4,0.3-2.9,2-3c1.7-0.2,2.1,1.2,2.3,2.6C12.6,276.1,14,285.1,15.4,294.4z" fill="#F67D13"/></g></svg>