<?xml version="1.0" encoding="utf-8"?>
<!-- Generator: Adobe Illustrator 15.1.0, SVG Export Plug-In . SVG Version: 6.00 Build 0)  -->
<!DOCTYPE svg PUBLIC "-//W3C//DTD SVG 1.1//EN" "http://www.w3.org/Graphics/SVG/1.1/DTD/svg11.dtd">
<svg version="1.1" id="Layer_1" xmlns="http://www.w3.org/2000/svg" xmlns:xlink="http://www.w3.org/1999/xlink" x="0px" y="0px"
	 width="800px" height="162px" viewBox="0 0 800 162" enable-background="new 0 0 800 162" xml:space="preserve">
<g>
	<g>
		<circle fill="#007571" cx="253.003" cy="80.703" r="80.802"/>
		<g>
			<path fill="#FFFFFF" d="M272.549,132.188c-2.953,1.279-5.822,2.24-8.602,2.879c-2.781,0.641-5.551,0.961-8.308,0.961
				c-5.415,0-10.608-1.098-15.58-3.285c-4.973-2.189-9.525-5.379-13.66-9.562c-4.924-5.07-8.592-11.211-11.003-18.426
				c-2.412-7.21-3.618-15.737-3.618-25.583c0-16.293,4.023-29.548,12.073-39.763c8.049-10.214,18.324-15.322,30.828-15.322
				c3.102,0,6.141,0.258,9.119,0.775c2.979,0.516,5.896,1.268,8.75,2.251v25.845c-1.871-1.033-3.74-1.82-5.611-2.363
				c-1.871-0.541-3.668-0.812-5.391-0.812c-6.006,0-10.559,2.523-13.66,7.567c-3.102,5.048-4.653,12.47-4.653,22.264
				c0,9.255,1.538,16.407,4.615,21.452c3.077,5.047,7.422,7.568,13.034,7.568c2.068,0,4.072-0.297,6.019-0.885
				c1.944-0.594,3.827-1.451,5.647-2.586V132.188z"/>
		</g>
	</g>
	<g>
		<circle fill="#004C79" cx="82.61" cy="80.703" r="80.802"/>
		<g>
			<path fill="#FFFFFF" d="M47.271,133.888V26.079h34.631c11.715,0,20.945,2.979,27.691,8.936
				c6.743,5.957,10.116,14.056,10.116,24.295c0,6.3-1.514,11.678-4.542,16.134c-3.027,4.455-7.568,8.01-13.623,10.668l21.339,47.776
				H90.985l-13.586-41.72v41.72H47.271z M77.398,48.454V74.15c4.085-0.099,7.063-1.17,8.934-3.212
				c1.87-2.042,2.807-5.254,2.807-9.637c0-4.282-0.886-7.494-2.658-9.637c-1.772-2.14-4.407-3.211-7.901-3.211H77.398z"/>
		</g>
	</g>
	<g>
		<g>
			<path fill="none" stroke="#004C79" stroke-width="3" stroke-miterlimit="10" d="M344.595,132.675V24.866h53.387v26.14h-23.333
				v15.581h20.453v25.402h-20.453v40.686H344.595z"/>
			<path fill="none" stroke="#004C79" stroke-width="3" stroke-miterlimit="10" d="M405.219,94.13V24.866h30.053V97.01
				c0,3.15,0.564,5.477,1.698,6.979c1.132,1.501,2.881,2.251,5.243,2.251c2.41,0,4.183-0.75,5.316-2.251
				c1.131-1.502,1.697-3.828,1.697-6.979V24.866h30.201V94.13c0,14.08-2.99,24.381-8.972,30.902
				c-5.98,6.523-15.396,9.783-28.243,9.783c-12.801,0-22.165-3.26-28.097-9.783C408.184,118.511,405.219,108.21,405.219,94.13z"/>
			<path fill="none" stroke="#004C79" stroke-width="3" stroke-miterlimit="10" d="M491.095,132.675V24.866h29.979l16.614,56.71
				v-56.71h27.32v107.809h-29.609l-16.762-53.978v53.978H491.095z"/>
			<path fill="none" stroke="#004C79" stroke-width="3" stroke-miterlimit="10" d="M569.735,132.675l23.628-107.809h33.894
				l23.556,107.809h-29.314l-2.29-15.875h-17.797l-2.289,15.875H569.735z M604.364,95.017h11.964l-6.056-39.949L604.364,95.017z"/>
			<path fill="none" stroke="#004C79" stroke-width="3" stroke-miterlimit="10" d="M651.92,96.861
				c4.28,3.396,8.232,5.98,11.851,7.754c3.618,1.771,6.779,2.657,9.487,2.657c2.413,0,4.395-0.715,5.946-2.14
				c1.551-1.428,2.326-3.225,2.326-5.391c0-2.56-2.609-6.301-7.828-11.226c-0.146-0.146-0.246-0.244-0.295-0.293
				c-9.009-8.319-14.793-14.769-17.353-19.348c-2.562-4.578-3.841-9.525-3.841-14.842c0-9.107,3.09-16.602,9.268-22.484
				c6.179-5.883,14.115-8.824,23.812-8.824c3.79,0,7.719,0.518,11.779,1.551s8.256,2.586,12.589,4.652v27.984
				c-3.594-2.854-6.967-5.007-10.116-6.461c-3.151-1.45-6.031-2.178-8.639-2.178c-2.266,0-4.087,0.604-5.465,1.809
				c-1.379,1.208-2.066,2.771-2.066,4.688c0,2.759,2.583,6.156,7.752,10.191c0.394,0.345,0.689,0.59,0.886,0.739
				c8.959,7.187,14.771,13.105,17.427,17.759c2.657,4.65,3.987,10.126,3.987,16.428c0,10.536-3.322,18.989-9.968,25.366
				c-6.646,6.373-15.457,9.561-26.436,9.561c-4.233,0-8.394-0.666-12.479-1.994c-4.087-1.33-8.296-3.398-12.626-6.203V96.861z"/>
			<path fill="none" stroke="#004C79" stroke-width="3" stroke-miterlimit="10" d="M713.428,132.675l23.63-107.809h33.892
				l23.557,107.809h-29.314l-2.29-15.875h-17.796l-2.289,15.875H713.428z M748.061,95.017h11.961l-6.055-39.949L748.061,95.017z"/>
		</g>
		<g>
			<path fill="#1D1D1B" d="M351.93,151.79l6.177,8.504h-3.682l-5.699-8.168h-0.543v8.168h-3.01v-19.955h3.528
				c2.636,0,4.539,0.496,5.711,1.484c1.292,1.105,1.938,2.561,1.938,4.371c0,1.412-0.405,2.629-1.214,3.643
				C354.325,150.854,353.256,151.505,351.93,151.79z M348.182,149.501h0.957c2.852,0,4.278-1.09,4.278-3.268
				c0-2.041-1.388-3.064-4.161-3.064h-1.073V149.501z"/>
			<path fill="#1D1D1B" d="M372.115,143.169h-8v4.797h7.766v2.826h-7.766v6.67h8v2.832h-11.01v-19.955h11.01V143.169z"/>
			<path fill="#1D1D1B" d="M379.08,152.19v8.104h-3.011v-19.955h3.411c1.672,0,2.933,0.119,3.786,0.348
				c0.862,0.234,1.62,0.674,2.274,1.32c1.146,1.121,1.719,2.533,1.719,4.238c0,1.828-0.611,3.275-1.834,4.342
				c-1.224,1.07-2.874,1.604-4.95,1.604H379.08z M379.08,149.399h1.124c2.765,0,4.148-1.064,4.148-3.193
				c0-2.057-1.426-3.088-4.277-3.088h-0.995V149.399z"/>
			<path fill="#1D1D1B" d="M389.366,150.226c0-2.809,1.029-5.219,3.087-7.234c2.051-2.02,4.515-3.027,7.392-3.027
				c2.843,0,5.281,1.018,7.313,3.051c2.042,2.035,3.063,4.475,3.063,7.326c0,2.869-1.025,5.305-3.075,7.301
				c-2.06,2.01-4.545,3.014-7.456,3.014c-2.576,0-4.889-0.893-6.94-2.674C390.493,156.007,389.366,153.421,389.366,150.226z
				 M392.402,150.257c0,2.205,0.74,4.016,2.223,5.436c1.473,1.422,3.174,2.131,5.104,2.131c2.093,0,3.858-0.723,5.297-2.168
				c1.438-1.465,2.159-3.244,2.159-5.346c0-2.125-0.712-3.908-2.133-5.346c-1.413-1.445-3.162-2.168-5.247-2.168
				c-2.075,0-3.828,0.723-5.259,2.168C393.116,146.394,392.402,148.157,392.402,150.257z"/>
			<path fill="#1D1D1B" d="M425.288,143.3l-2.442,1.445c-0.456-0.793-0.891-1.309-1.305-1.551c-0.431-0.273-0.987-0.412-1.667-0.412
				c-0.836,0-1.529,0.238-2.08,0.713c-0.552,0.465-0.828,1.049-0.828,1.758c0,0.975,0.725,1.76,2.171,2.354l1.99,0.814
				c1.619,0.654,2.806,1.453,3.553,2.398c0.751,0.945,1.125,2.104,1.125,3.473c0,1.834-0.61,3.354-1.833,4.551
				c-1.233,1.207-2.763,1.812-4.589,1.812c-1.731,0-3.162-0.518-4.289-1.547c-1.112-1.029-1.807-2.471-2.081-4.334l3.049-0.672
				c0.139,1.172,0.379,1.98,0.724,2.43c0.62,0.859,1.526,1.291,2.714,1.291c0.939,0,1.719-0.314,2.34-0.941
				c0.62-0.629,0.93-1.426,0.93-2.389c0-0.387-0.054-0.742-0.16-1.066c-0.109-0.322-0.277-0.619-0.505-0.889
				c-0.228-0.271-0.523-0.529-0.886-0.764c-0.362-0.238-0.793-0.463-1.292-0.678L418,150.296c-2.73-1.152-4.096-2.842-4.096-5.062
				c0-1.496,0.572-2.75,1.719-3.76c1.146-1.014,2.571-1.52,4.277-1.52C422.201,139.954,423.996,141.069,425.288,143.3z"/>
			<path fill="#1D1D1B" d="M432.448,140.339v19.955h-3.012v-19.955H432.448z"/>
			<path fill="#1D1D1B" d="M442.746,143.169v17.125h-3.011v-17.125h-4.587v-2.83h12.173v2.83H442.746z"/>
			<path fill="#1D1D1B" d="M448.38,150.226c0-2.809,1.029-5.219,3.089-7.234c2.051-2.02,4.513-3.027,7.392-3.027
				c2.843,0,5.28,1.018,7.313,3.051c2.042,2.035,3.062,4.475,3.062,7.326c0,2.869-1.024,5.305-3.076,7.301
				c-2.059,2.01-4.544,3.014-7.455,3.014c-2.576,0-4.891-0.893-6.939-2.674C449.509,156.007,448.38,153.421,448.38,150.226z
				 M451.418,150.257c0,2.205,0.739,4.016,2.223,5.436c1.472,1.422,3.174,2.131,5.103,2.131c2.094,0,3.859-0.723,5.299-2.168
				c1.438-1.465,2.158-3.244,2.158-5.346c0-2.125-0.711-3.908-2.132-5.346c-1.414-1.445-3.163-2.168-5.247-2.168
				c-2.076,0-3.829,0.723-5.26,2.168C452.132,146.394,451.418,148.157,451.418,150.257z M463.396,134.978l-5.273,3.566l-1.433-1.201
				l4.146-4.162L463.396,134.978z"/>
			<path fill="#1D1D1B" d="M479.781,151.79l6.177,8.504h-3.684l-5.698-8.168h-0.543v8.168h-3.01v-19.955h3.526
				c2.638,0,4.541,0.496,5.712,1.484c1.292,1.105,1.938,2.561,1.938,4.371c0,1.412-0.405,2.629-1.216,3.643
				C482.176,150.854,481.106,151.505,479.781,151.79z M476.033,149.501h0.956c2.852,0,4.276-1.09,4.276-3.268
				c0-2.041-1.387-3.064-4.159-3.064h-1.073V149.501z"/>
			<path fill="#1D1D1B" d="M491.966,140.339v19.955h-3.012v-19.955H491.966z"/>
			<path fill="#1D1D1B" d="M495.767,150.226c0-2.809,1.028-5.219,3.088-7.234c2.05-2.02,4.514-3.027,7.391-3.027
				c2.844,0,5.281,1.018,7.312,3.051c2.042,2.035,3.063,4.475,3.063,7.326c0,2.869-1.025,5.305-3.075,7.301
				c-2.059,2.01-4.545,3.014-7.456,3.014c-2.575,0-4.888-0.893-6.939-2.674C496.895,156.007,495.767,153.421,495.767,150.226z
				 M498.803,150.257c0,2.205,0.741,4.016,2.223,5.436c1.474,1.422,3.174,2.131,5.104,2.131c2.094,0,3.86-0.723,5.299-2.168
				c1.438-1.465,2.157-3.244,2.157-5.346c0-2.125-0.711-3.908-2.132-5.346c-1.413-1.445-3.162-2.168-5.247-2.168
				c-2.076,0-3.828,0.723-5.259,2.168C499.516,146.394,498.803,148.157,498.803,150.257z"/>
			<path fill="#1D1D1B" d="M528.575,160.294v-19.955h4.186c2.009,0,3.592,0.199,4.755,0.598c1.251,0.387,2.384,1.045,3.4,1.977
				c2.058,1.877,3.088,4.344,3.088,7.402c0,3.066-1.073,5.549-3.217,7.443c-1.078,0.949-2.206,1.607-3.389,1.977
				c-1.102,0.371-2.663,0.559-4.689,0.559H528.575z M531.585,157.462h1.356c1.352,0,2.479-0.143,3.374-0.426
				c0.896-0.301,1.705-0.781,2.428-1.434c1.483-1.354,2.224-3.115,2.224-5.287c0-2.188-0.734-3.963-2.197-5.324
				c-1.318-1.213-3.26-1.822-5.828-1.822h-1.356V157.462z"/>
			<path fill="#1D1D1B" d="M546.794,150.226c0-2.809,1.029-5.219,3.091-7.234c2.05-2.02,4.513-3.027,7.391-3.027
				c2.844,0,5.281,1.018,7.313,3.051c2.041,2.035,3.062,4.475,3.062,7.326c0,2.869-1.022,5.305-3.075,7.301
				c-2.06,2.01-4.544,3.014-7.455,3.014c-2.576,0-4.89-0.893-6.939-2.674C547.922,156.007,546.794,153.421,546.794,150.226z
				 M549.832,150.257c0,2.205,0.74,4.016,2.222,5.436c1.473,1.422,3.176,2.131,5.105,2.131c2.093,0,3.857-0.723,5.299-2.168
				c1.436-1.465,2.156-3.244,2.156-5.346c0-2.125-0.711-3.908-2.133-5.346c-1.412-1.445-3.161-2.168-5.246-2.168
				c-2.076,0-3.829,0.723-5.26,2.168C550.547,146.394,549.832,148.157,549.832,150.257z"/>
			<path fill="#1D1D1B" d="M594.348,141.407v3.561c-1.74-1.459-3.541-2.186-5.401-2.186c-2.049,0-3.778,0.736-5.181,2.209
				c-1.414,1.467-2.12,3.256-2.12,5.377c0,2.094,0.706,3.861,2.12,5.297c1.412,1.441,3.143,2.158,5.194,2.158
				c1.06,0,1.958-0.172,2.702-0.518c0.411-0.17,0.839-0.404,1.283-0.699c0.444-0.291,0.912-0.643,1.402-1.057v3.639
				c-1.723,0.975-3.531,1.467-5.427,1.467c-2.852,0-5.283-0.998-7.302-2.986c-2.006-2.006-3.011-4.43-3.011-7.264
				c0-2.539,0.842-4.805,2.52-6.797c2.069-2.438,4.742-3.654,8.026-3.654C590.943,139.954,592.676,140.437,594.348,141.407z"/>
			<path fill="#1D1D1B" d="M597.023,150.226c0-2.809,1.029-5.219,3.088-7.234c2.049-2.02,4.513-3.027,7.391-3.027
				c2.843,0,5.281,1.018,7.314,3.051c2.041,2.035,3.063,4.475,3.063,7.326c0,2.869-1.027,5.305-3.076,7.301
				c-2.059,2.01-4.544,3.014-7.455,3.014c-2.578,0-4.891-0.893-6.94-2.674C598.151,156.007,597.023,153.421,597.023,150.226z
				 M600.059,150.257c0,2.205,0.741,4.016,2.223,5.436c1.475,1.422,3.175,2.131,5.104,2.131c2.094,0,3.859-0.723,5.298-2.168
				c1.438-1.465,2.158-3.244,2.158-5.346c0-2.125-0.711-3.908-2.132-5.346c-1.414-1.445-3.161-2.168-5.245-2.168
				c-2.078,0-3.831,0.723-5.261,2.168C600.773,146.394,600.059,148.157,600.059,150.257z"/>
			<path fill="#1D1D1B" d="M621.667,160.294v-21.312l14.549,15.223v-13.865h3.012v21.168l-14.551-15.184v13.971H621.667z"/>
			<path fill="#1D1D1B" d="M647.02,148.147h8.604v-7.809h3.012v19.955h-3.012v-9.32h-8.604v9.32h-3.012v-19.955h3.012V148.147z"/>
			<path fill="#1D1D1B" d="M674.428,143.169h-8.002v4.797h7.769v2.826h-7.769v6.67h8.002v2.832h-11.011v-19.955h11.011V143.169z"/>
			<path fill="#1D1D1B" d="M693.124,141.407v3.561c-1.739-1.459-3.54-2.186-5.4-2.186c-2.051,0-3.778,0.736-5.182,2.209
				c-1.415,1.467-2.12,3.256-2.12,5.377c0,2.094,0.705,3.861,2.12,5.297c1.413,1.441,3.143,2.158,5.193,2.158
				c1.061,0,1.96-0.172,2.702-0.518c0.413-0.17,0.842-0.404,1.284-0.699c0.444-0.291,0.911-0.643,1.402-1.057v3.639
				c-1.723,0.975-3.532,1.467-5.428,1.467c-2.851,0-5.283-0.998-7.3-2.986c-2.006-2.006-3.012-4.43-3.012-7.264
				c0-2.539,0.842-4.805,2.521-6.797c2.068-2.438,4.741-3.654,8.024-3.654C689.72,139.954,691.452,140.437,693.124,141.407z"/>
			<path fill="#1D1D1B" d="M699.934,140.339v19.955h-3.008v-19.955H699.934z"/>
			<path fill="#1D1D1B" d="M704.03,160.294l4.2-21.451l6.848,15.504l7.093-15.504l3.775,21.451h-3.09l-1.923-12.047l-5.905,12.961
				l-5.737-12.973l-2.146,12.059H704.03z"/>
			<path fill="#1D1D1B" d="M741.183,143.169h-8.001v4.797h7.768v2.826h-7.768v6.67h8.001v2.832h-11.009v-19.955h11.009V143.169z"/>
			<path fill="#1D1D1B" d="M745.137,160.294v-21.312l14.55,15.223v-13.865h3.011v21.168l-14.552-15.184v13.971H745.137z"/>
			<path fill="#1D1D1B" d="M772.981,143.169v17.125h-3.008v-17.125h-4.59v-2.83h12.175v2.83H772.981z"/>
			<path fill="#1D1D1B" d="M778.617,150.226c0-2.809,1.03-5.219,3.089-7.234c2.05-2.02,4.514-3.027,7.391-3.027
				c2.844,0,5.281,1.018,7.312,3.051c2.041,2.035,3.063,4.475,3.063,7.326c0,2.869-1.024,5.305-3.075,7.301
				c-2.06,2.01-4.545,3.014-7.456,3.014c-2.576,0-4.888-0.893-6.938-2.674C779.745,156.007,778.617,153.421,778.617,150.226z
				 M781.653,150.257c0,2.205,0.74,4.016,2.222,5.436c1.476,1.422,3.175,2.131,5.105,2.131c2.094,0,3.857-0.723,5.298-2.168
				c1.438-1.465,2.157-3.244,2.157-5.346c0-2.125-0.712-3.908-2.131-5.346c-1.415-1.445-3.163-2.168-5.247-2.168
				c-2.076,0-3.83,0.723-5.258,2.168C782.367,146.394,781.653,148.157,781.653,150.257z"/>
		</g>
	</g>
</g>
</svg>
